<?xml version="1.0" encoding="UTF-8"?> <!-- Generator: Adobe Illustrator 24.0.3, SVG Export Plug-In . SVG Version: 6.00 Build 0) --> <svg xmlns="http://www.w3.org/2000/svg" xmlns:xlink="http://www.w3.org/1999/xlink" version="1.1" id="Layer_1" x="0px" y="0px" viewBox="0 0 520 340" style="enable-background:new 0 0 520 340;" xml:space="preserve"> <path d="M287.8,185.2l28.7-84.3h42.6l-57.6,143.2h-36.7l-8.2-84.4L219,244.1h-44.7l-0.2-143.2H215l-1.3,85.2l36.7-85.2h30.3 L287.8,185.2z"></path> <path d="M29.8,171.4c0-14.5,2.4-27.3,7.1-38.4s11.6-19.7,20.5-25.7s19.3-9.1,31.1-9.1c14.9,0,26.6,5,34.9,15.1l1.6-12.4h40.5v137.8 c0,12.6-2.9,23.6-8.8,32.9s-14.4,16.5-25.5,21.4c-11.1,5-24,7.5-38.7,7.5c-10.5,0-20.7-2-30.5-6s-17.4-9.1-22.6-15.5l18.7-26.2 c8.3,9.8,19.2,14.7,32.8,14.7c19.8,0,29.6-10.1,29.6-30.4v-4.5c-8.6,9.4-19.4,14.2-32.4,14.2c-17.5,0-31.6-6.7-42.4-20.1 S29.6,195.4,29.6,173v-1.6H29.8z M74.6,174.2c0,11.7,2.2,21,6.6,27.9c4.4,6.8,10.6,10.3,18.5,10.3c9.6,0,16.6-3.2,21-9.7v-60.2 c-4.3-6.5-11.3-9.8-20.8-9.8c-7.9,0-14.2,3.6-18.7,10.7C76.8,150.4,74.6,160.7,74.6,174.2z"></path> <path d="M79.7,86.8c-1.8,2-3.9,3.5-6.4,4.5s-5.3,1.5-8.4,1.5c-5.2,0-9.2-1.7-12.1-5.1s-4.3-8.4-4.4-14.8v-8.6 c0-6.6,1.4-11.7,4.1-15.2c2.7-3.6,6.7-5.3,11.8-5.3c4.9,0,8.6,1.3,11,3.8s3.9,6.6,4.3,12h-8.8c-0.2-3-0.8-5.1-1.8-6.2 c-0.9-1.1-2.4-1.7-4.4-1.7c-2.5,0-4.2,1-5.3,2.9s-1.7,4.9-1.7,9.1v8.7c0,4.4,0.6,7.5,1.8,9.5s3.2,3,6,3c1.8,0,3.2-0.4,4.4-1.1 l0.8-0.6v-8.8h-6.4v-7.3h15.5V86.8z"></path> <path d="M97.5,74.8H93v17.5h-9.1V44.5h14.5c4.6,0,8.1,1.3,10.6,3.8s3.7,6.1,3.7,10.7c0,6.3-2.2,10.8-6.5,13.3l7.9,19.6v0.5h-9.8 L97.5,74.8z M93,66.8h5.2c1.8,0,3.2-0.6,4.1-1.9s1.4-3,1.4-5.1c0-4.8-1.8-7.2-5.3-7.2H93L93,66.8z"></path> <path d="M138.2,82.5h-12.4l-2.4,9.8h-9.6l14.1-47.8h8.3l14.2,47.8h-9.7L138.2,82.5z M127.7,74.4h8.4l-4.2-17L127.7,74.4z"></path> <path d="M160.9,75.5v16.8h-9.1V44.5h15.3c4.4,0,8,1.5,10.6,4.4s4,6.7,4,11.4s-1.3,8.4-3.9,11.1s-6.2,4.1-10.9,4.1H160.9z M160.9,67.4h6.2c1.7,0,3.1-0.6,4-1.8s1.4-3,1.4-5.3c0-2.4-0.5-4.3-1.5-5.7s-2.3-2.1-3.9-2.1h-6.3v14.9H160.9z"></path> <path d="M216.2,92.3h-9.1V71.8h-13.4v20.4h-9.1V44.5h9.1v19.3h13.4V44.5h9.1V92.3z"></path> <path d="M230.1,92.3H221V44.5h9.1V92.3z"></path> <path d="M264.7,76.3c-0.2,5.4-1.7,9.6-4.3,12.4s-6.4,4.2-11.2,4.2c-5.1,0-9-1.8-11.7-5.3c-2.7-3.6-4.1-8.6-4.1-15.2v-8 c0-6.6,1.4-11.6,4.2-15.2s6.7-5.3,11.7-5.3c4.9,0,8.6,1.5,11.2,4.4c2.5,2.9,4,7.1,4.3,12.5h-9.1c-0.1-3.4-0.6-5.7-1.5-7 s-2.5-1.9-4.9-1.9s-4.2,0.9-5.2,2.7s-1.5,4.8-1.6,8.9v9c0,4.7,0.5,8,1.5,9.8s2.7,2.7,5.1,2.7s4-0.6,4.9-1.9c0.9-1.2,1.4-3.5,1.5-6.7 L264.7,76.3L264.7,76.3z"></path> <path d="M274.7,79.4c0-2.2,0.6-4.3,1.7-6.1c1.2-1.9,3.3-4,6.4-6.3c-1.3-1.9-2.4-3.7-3.2-5.4s-1.1-3.4-1.1-5.2c0-3.7,1.1-6.7,3.3-9.1 c2.2-2.3,5.2-3.5,8.9-3.5c3.4,0,6.1,1.1,8.3,3.2s3.2,4.8,3.2,7.9c0,3.8-1.8,7.2-5.4,10.1l-3.5,2.7l7.8,9.6c1.2-2.5,1.8-5.3,1.8-8.4 h7.6c0,6.2-1.3,11.2-4,15.1l6.7,8.3h-10.1l-2.3-2.8c-3.3,2.3-7.1,3.5-11.4,3.5c-4.5,0-8-1.2-10.7-3.7 C276,86.7,274.7,83.4,274.7,79.4L274.7,79.4z M289.8,85.3c2.1,0,4.2-0.6,6.1-1.9L287,72.5l-0.6,0.5c-1.8,1.7-2.8,3.6-2.8,5.9 c0,1.9,0.6,3.4,1.7,4.6C286.5,84.7,288,85.3,289.8,85.3L289.8,85.3z M286.5,56.3c0,1.6,0.9,3.7,2.7,6.2l2.4-1.7 c1.2-0.8,2.1-1.6,2.5-2.4c0.5-0.8,0.7-1.7,0.7-2.8s-0.4-2-1.1-2.9c-0.8-0.8-1.7-1.2-2.9-1.2c-1.3,0-2.3,0.4-3.1,1.3 S286.5,54.8,286.5,56.3z"></path> <path d="M351.2,74.5l4.3-30h9l-8,47.8h-9.1l-5.3-28.2l-5.2,28.2h-9.1l-8-47.8h9.1l4.2,30l5.3-30h7.6L351.2,74.5z"></path> <path d="M390.3,71.6h-14.2v12.7h16.7v8H367V44.5h25.8v8h-16.7v11.3h14.2V71.6z"></path> <path d="M395.7,92.3V44.5h13.9c4.7,0,8.3,1.1,10.7,3.3s3.7,5.5,3.7,9.8c0,2.4-0.5,4.5-1.5,6.3c-1,1.8-2.4,3-4.1,3.8 c2,0.6,3.6,1.8,4.7,3.7c1.1,1.8,1.6,4.1,1.6,6.8c0,4.6-1.2,8.1-3.6,10.5s-5.9,3.5-10.4,3.5L395.7,92.3L395.7,92.3z M404.8,64.5h4.7 c3.6,0,5.3-2,5.3-5.9c0-2.2-0.4-3.7-1.2-4.7c-0.8-0.9-2.2-1.4-4-1.4h-4.8V64.5z M404.8,71.5v12.8h5.8c1.6,0,2.9-0.5,3.7-1.6 s1.3-2.6,1.3-4.6c0-4.3-1.5-6.5-4.4-6.6L404.8,71.5z"></path> <path d="M346.1,171.4c0-22.7,4.9-40.5,14.7-53.6s23.5-19.6,41-19.6c12.8,0,23.6,5,32.3,15.1L434,44h45l-0.2,200.1h-40.1l-2.2-15.4 c-9.2,12-20.8,18-34.9,18c-17,0-30.5-6.5-40.5-19.6S346.1,195.5,346.1,171.4L346.1,171.4z M390.7,174.2c0,25.4,7.4,38.1,22.2,38.1 c9.9,0,16.9-4.1,21.2-12.4v-54.5c-4.1-8.5-11-12.7-20.9-12.7c-13.8,0-21.2,11.1-22.4,33.4L390.7,174.2z"></path> <path d="M218.2,311v-58.2h18.5c5.3,0,10,1.2,14.2,3.5s7.4,5.6,9.8,9.8c2.3,4.2,3.5,9.1,3.5,14.5v2.7c0,5.4-1.1,10.2-3.4,14.4 s-5.5,7.5-9.7,9.8s-8.9,3.5-14.2,3.5L218.2,311z M230.6,262.6v38.8h6c4.8,0,8.6-1.5,11.1-4.6c2.6-3.1,3.9-7.4,3.9-13.1v-3.1 c0-5.9-1.3-10.4-3.8-13.4c-2.5-3.1-6.2-4.6-11.1-4.6L230.6,262.6z"></path> <path d="M304.9,285.8h-23.8v15.6H309v9.6h-40.3v-58.2H309v9.7h-27.8v13.9H305v9.4H304.9z"></path> <path d="M344.2,295.8c0-2.3-0.8-4-2.5-5.2s-4.6-2.5-8.9-3.8s-7.7-2.7-10.2-4c-6.8-3.6-10.2-8.4-10.2-14.4c0-3.1,0.9-5.9,2.7-8.4 s4.5-4.4,7.9-5.8s7.3-2.1,11.5-2.1c4.3,0,8.1,0.8,11.5,2.3s6,3.6,7.8,6.4c1.9,2.7,2.8,5.9,2.8,9.4h-12.4c0-2.7-0.9-4.7-2.6-6.2 s-4.2-2.2-7.3-2.2c-3,0-5.4,0.6-7.1,1.9c-1.7,1.2-2.5,2.9-2.5,4.9c0,1.9,1,3.5,3,4.8s4.9,2.5,8.7,3.6c7,2.1,12.2,4.6,15.4,7.6 s4.8,6.8,4.8,11.3c0,5-2,9-5.9,11.8c-3.9,2.9-9.2,4.3-15.9,4.3c-4.6,0-8.8-0.8-12.6-2.5c-3.8-1.6-6.7-3.9-8.7-6.7s-3-6.2-3-9.9h12.4 c0,6.4,4,9.6,11.9,9.6c2.9,0,5.2-0.6,6.9-1.7S344.2,297.9,344.2,295.8L344.2,295.8z"></path> <path d="M373.6,311h-12.4v-58.2h12.4V311z"></path> <path d="M426.3,303.7c-2.2,2.6-5.4,4.6-9.5,6s-8.6,2.1-13.5,2.1c-5.2,0-9.8-1.1-13.7-3.3s-7-5.4-9.1-9.6s-3.2-9.1-3.3-14.7v-4 c0-5.8,1-10.8,3-15.1c2-4.2,4.9-7.5,8.8-9.7c3.8-2.3,8.3-3.4,13.4-3.4c7.1,0,12.7,1.6,16.7,4.9c4,3.3,6.4,8.1,7.1,14.4h-12.1 c-0.6-3.3-1.8-5.8-3.7-7.3s-4.5-2.3-7.8-2.3c-4.2,0-7.4,1.5-9.6,4.6s-3.3,7.6-3.3,13.7v3.7c0,6.1,1.2,10.7,3.6,13.8 s5.9,4.7,10.5,4.7c4.7,0,8-1,10-2.9v-10h-11.3v-8.8h23.7L426.3,303.7L426.3,303.7z"></path> <path d="M478.9,311h-12.4l-24.1-38.3V311H430v-58.2h12.4l24.2,38.4v-38.4h12.3V311z"></path> </svg> 