<svg version="1.1" id="prefix__Layer_1" xmlns="http://www.w3.org/2000/svg" x="0" y="0" viewBox="0 0 520 340" xml:space="preserve"><style>.prefix__st0{fill:#fff}</style><path class="prefix__st0" d="M287.8 185.2l28.7-84.3h42.6l-57.6 143.2h-36.7l-8.2-84.4-37.6 84.4h-44.7l-.2-143.2H215l-1.3 85.2 36.7-85.2h30.3l7.1 84.3zM29.8 171.4c0-14.5 2.4-27.3 7.1-38.4s11.6-19.7 20.5-25.7 19.3-9.1 31.1-9.1c14.9 0 26.6 5 34.9 15.1l1.6-12.4h40.5v137.8c0 12.6-2.9 23.6-8.8 32.9s-14.4 16.5-25.5 21.4c-11.1 5-24 7.5-38.7 7.5-10.5 0-20.7-2-30.5-6s-17.4-9.1-22.6-15.5l18.7-26.2c8.3 9.8 19.2 14.7 32.8 14.7 19.8 0 29.6-10.1 29.6-30.4v-4.5c-8.6 9.4-19.4 14.2-32.4 14.2-17.5 0-31.6-6.7-42.4-20.1S29.6 195.4 29.6 173v-1.6h.2zm44.8 2.8c0 11.7 2.2 21 6.6 27.9 4.4 6.8 10.6 10.3 18.5 10.3 9.6 0 16.6-3.2 21-9.7v-60.2c-4.3-6.5-11.3-9.8-20.8-9.8-7.9 0-14.2 3.6-18.7 10.7-4.4 7-6.6 17.3-6.6 30.8zM79.7 86.8c-1.8 2-3.9 3.5-6.4 4.5s-5.3 1.5-8.4 1.5c-5.2 0-9.2-1.7-12.1-5.1s-4.3-8.4-4.4-14.8v-8.6c0-6.6 1.4-11.7 4.1-15.2 2.7-3.6 6.7-5.3 11.8-5.3 4.9 0 8.6 1.3 11 3.8s3.9 6.6 4.3 12h-8.8c-.2-3-.8-5.1-1.8-6.2-.9-1.1-2.4-1.7-4.4-1.7-2.5 0-4.2 1-5.3 2.9s-1.7 4.9-1.7 9.1v8.7c0 4.4.6 7.5 1.8 9.5s3.2 3 6 3c1.8 0 3.2-.4 4.4-1.1l.8-.6v-8.8h-6.4v-7.3h15.5v19.7zM97.5 74.8H93v17.5h-9.1V44.5h14.5c4.6 0 8.1 1.3 10.6 3.8s3.7 6.1 3.7 10.7c0 6.3-2.2 10.8-6.5 13.3l7.9 19.6v.5h-9.8l-6.8-17.6zm-4.5-8h5.2c1.8 0 3.2-.6 4.1-1.9s1.4-3 1.4-5.1c0-4.8-1.8-7.2-5.3-7.2H93v14.2z"/><path class="prefix__st0" d="M138.2 82.5h-12.4l-2.4 9.8h-9.6l14.1-47.8h8.3l14.2 47.8h-9.7l-2.5-9.8zm-10.5-8.1h8.4l-4.2-17-4.2 17zM160.9 75.5v16.8h-9.1V44.5h15.3c4.4 0 8 1.5 10.6 4.4s4 6.7 4 11.4-1.3 8.4-3.9 11.1-6.2 4.1-10.9 4.1h-6zm0-8.1h6.2c1.7 0 3.1-.6 4-1.8s1.4-3 1.4-5.3c0-2.4-.5-4.3-1.5-5.7s-2.3-2.1-3.9-2.1h-6.3v14.9h.1zM216.2 92.3h-9.1V71.8h-13.4v20.4h-9.1V44.5h9.1v19.3h13.4V44.5h9.1v47.8zM230.1 92.3H221V44.5h9.1v47.8zM264.7 76.3c-.2 5.4-1.7 9.6-4.3 12.4s-6.4 4.2-11.2 4.2c-5.1 0-9-1.8-11.7-5.3-2.7-3.6-4.1-8.6-4.1-15.2v-8c0-6.6 1.4-11.6 4.2-15.2s6.7-5.3 11.7-5.3c4.9 0 8.6 1.5 11.2 4.4 2.5 2.9 4 7.1 4.3 12.5h-9.1c-.1-3.4-.6-5.7-1.5-7s-2.5-1.9-4.9-1.9-4.2.9-5.2 2.7-1.5 4.8-1.6 8.9v9c0 4.7.5 8 1.5 9.8s2.7 2.7 5.1 2.7 4-.6 4.9-1.9c.9-1.2 1.4-3.5 1.5-6.7l9.2-.1zM274.7 79.4c0-2.2.6-4.3 1.7-6.1 1.2-1.9 3.3-4 6.4-6.3-1.3-1.9-2.4-3.7-3.2-5.4s-1.1-3.4-1.1-5.2c0-3.7 1.1-6.7 3.3-9.1 2.2-2.3 5.2-3.5 8.9-3.5 3.4 0 6.1 1.1 8.3 3.2s3.2 4.8 3.2 7.9c0 3.8-1.8 7.2-5.4 10.1l-3.5 2.7 7.8 9.6c1.2-2.5 1.8-5.3 1.8-8.4h7.6c0 6.2-1.3 11.2-4 15.1l6.7 8.3h-10.1l-2.3-2.8c-3.3 2.3-7.1 3.5-11.4 3.5-4.5 0-8-1.2-10.7-3.7-2.7-2.6-4-5.9-4-9.9zm15.1 5.9c2.1 0 4.2-.6 6.1-1.9L287 72.5l-.6.5c-1.8 1.7-2.8 3.6-2.8 5.9 0 1.9.6 3.4 1.7 4.6 1.2 1.2 2.7 1.8 4.5 1.8zm-3.3-29c0 1.6.9 3.7 2.7 6.2l2.4-1.7c1.2-.8 2.1-1.6 2.5-2.4.5-.8.7-1.7.7-2.8s-.4-2-1.1-2.9c-.8-.8-1.7-1.2-2.9-1.2-1.3 0-2.3.4-3.1 1.3s-1.2 2-1.2 3.5zM351.2 74.5l4.3-30h9l-8 47.8h-9.1l-5.3-28.2-5.2 28.2h-9.1l-8-47.8h9.1l4.2 30 5.3-30h7.6l5.2 30zM390.3 71.6h-14.2v12.7h16.7v8H367V44.5h25.8v8h-16.7v11.3h14.2v7.8zM395.7 92.3V44.5h13.9c4.7 0 8.3 1.1 10.7 3.3s3.7 5.5 3.7 9.8c0 2.4-.5 4.5-1.5 6.3s-2.4 3-4.1 3.8c2 .6 3.6 1.8 4.7 3.7 1.1 1.8 1.6 4.1 1.6 6.8 0 4.6-1.2 8.1-3.6 10.5s-5.9 3.5-10.4 3.5l-15 .1zm9.1-27.8h4.7c3.6 0 5.3-2 5.3-5.9 0-2.2-.4-3.7-1.2-4.7-.8-.9-2.2-1.4-4-1.4h-4.8v12zm0 7v12.8h5.8c1.6 0 2.9-.5 3.7-1.6s1.3-2.6 1.3-4.6c0-4.3-1.5-6.5-4.4-6.6h-6.4z"/><path class="prefix__st0" d="M346.1 171.4c0-22.7 4.9-40.5 14.7-53.6s23.5-19.6 41-19.6c12.8 0 23.6 5 32.3 15.1L434 44h45l-.2 200.1h-40.1l-2.2-15.4c-9.2 12-20.8 18-34.9 18-17 0-30.5-6.5-40.5-19.6s-15-31.6-15-55.7zm44.6 2.8c0 25.4 7.4 38.1 22.2 38.1 9.9 0 16.9-4.1 21.2-12.4v-54.5c-4.1-8.5-11-12.7-20.9-12.7-13.8 0-21.2 11.1-22.4 33.4l-.1 8.1zM218.2 311v-58.2h18.5c5.3 0 10 1.2 14.2 3.5s7.4 5.6 9.8 9.8c2.3 4.2 3.5 9.1 3.5 14.5v2.7c0 5.4-1.1 10.2-3.4 14.4s-5.5 7.5-9.7 9.8-8.9 3.5-14.2 3.5h-18.7zm12.4-48.4v38.8h6c4.8 0 8.6-1.5 11.1-4.6 2.6-3.1 3.9-7.4 3.9-13.1v-3.1c0-5.9-1.3-10.4-3.8-13.4-2.5-3.1-6.2-4.6-11.1-4.6h-6.1zM304.9 285.8h-23.8v15.6H309v9.6h-40.3v-58.2H309v9.7h-27.8v13.9H305v9.4h-.1zM344.2 295.8c0-2.3-.8-4-2.5-5.2s-4.6-2.5-8.9-3.8-7.7-2.7-10.2-4c-6.8-3.6-10.2-8.4-10.2-14.4 0-3.1.9-5.9 2.7-8.4s4.5-4.4 7.9-5.8 7.3-2.1 11.5-2.1c4.3 0 8.1.8 11.5 2.3s6 3.6 7.8 6.4c1.9 2.7 2.8 5.9 2.8 9.4h-12.4c0-2.7-.9-4.7-2.6-6.2s-4.2-2.2-7.3-2.2c-3 0-5.4.6-7.1 1.9-1.7 1.2-2.5 2.9-2.5 4.9 0 1.9 1 3.5 3 4.8s4.9 2.5 8.7 3.6c7 2.1 12.2 4.6 15.4 7.6s4.8 6.8 4.8 11.3c0 5-2 9-5.9 11.8-3.9 2.9-9.2 4.3-15.9 4.3-4.6 0-8.8-.8-12.6-2.5-3.8-1.6-6.7-3.9-8.7-6.7s-3-6.2-3-9.9h12.4c0 6.4 4 9.6 11.9 9.6 2.9 0 5.2-.6 6.9-1.7s2.5-2.9 2.5-5zM373.6 311h-12.4v-58.2h12.4V311zM426.3 303.7c-2.2 2.6-5.4 4.6-9.5 6s-8.6 2.1-13.5 2.1c-5.2 0-9.8-1.1-13.7-3.3s-7-5.4-9.1-9.6-3.2-9.1-3.3-14.7v-4c0-5.8 1-10.8 3-15.1 2-4.2 4.9-7.5 8.8-9.7 3.8-2.3 8.3-3.4 13.4-3.4 7.1 0 12.7 1.6 16.7 4.9 4 3.3 6.4 8.1 7.1 14.4h-12.1c-.6-3.3-1.8-5.8-3.7-7.3s-4.5-2.3-7.8-2.3c-4.2 0-7.4 1.5-9.6 4.6s-3.3 7.6-3.3 13.7v3.7c0 6.1 1.2 10.7 3.6 13.8s5.9 4.7 10.5 4.7c4.7 0 8-1 10-2.9v-10h-11.3v-8.8h23.7l.1 23.2zM478.9 311h-12.4l-24.1-38.3V311H430v-58.2h12.4l24.2 38.4v-38.4h12.3V311z"/></svg>