<svg xmlns="http://www.w3.org/2000/svg" class="left" viewBox="0 0 490.4 490.4"><path d="M245.2 0c135.2 0 245.2 110 245.2 245.2s-110 245.2-245.2 245.2S0 380.4 0 245.2 110 0 245.2 0zm0 465.9c121.7 0 220.7-99 220.7-220.7 0-121.7-99-220.7-220.7-220.7-121.7 0-220.7 99-220.7 220.7 0 121.7 99 220.7 220.7 220.7z"/><path d="M129.95 236.55l68.9-68.9c4.8-4.8 12.5-4.8 17.3 0 4.8 4.8 4.8 12.5 0 17.3l-48 48h183.5c6.8 0 12.3 5.5 12.3 12.3 0 6.8-5.5 12.3-12.3 12.3h-183.4l48 48c4.8 4.8 4.8 12.5 0 17.3-4.8 4.8-12.5 4.8-17.3 0l-68.9-68.9c-2.4-2.4-3.6-5.5-3.6-8.7 0-3.2 1.1-6.3 3.5-8.7z"/></svg>