<?xml version="1.0" encoding="utf-8"?>
<!-- Generator: Adobe Illustrator 25.0.0, SVG Export Plug-In . SVG Version: 6.00 Build 0)  -->
<svg version="1.1" id="Layer_1" xmlns="http://www.w3.org/2000/svg" xmlns:xlink="http://www.w3.org/1999/xlink" x="0px" y="0px"
	 viewBox="0 0 490.4 490.4" style="enable-background:new 0 0 490.4 490.4;" xml:space="preserve">
<path d="M245.2,490.4C110,490.4,0,380.4,0,245.2S110,0,245.2,0s245.2,110,245.2,245.2S380.4,490.4,245.2,490.4z M245.2,24.5
	c-121.7,0-220.7,99-220.7,220.7s99,220.7,220.7,220.7s220.7-99,220.7-220.7S366.9,24.5,245.2,24.5z"/>
<path d="M360.5,253.8l-68.9,68.9c-4.8,4.8-12.5,4.8-17.3,0c-4.8-4.8-4.8-12.5,0-17.3l48-48H138.7c-6.8,0-12.3-5.5-12.3-12.3
	s5.5-12.3,12.3-12.3h183.4l-48-48c-4.8-4.8-4.8-12.5,0-17.3s12.5-4.8,17.3,0l68.9,68.9c2.4,2.4,3.6,5.5,3.6,8.7
	S362.8,251.5,360.5,253.8L360.5,253.8z"/>
</svg>
