<?xml version="1.0" encoding="utf-8"?>
<!-- Generator: Adobe Illustrator 26.0.1, SVG Export Plug-In . SVG Version: 6.00 Build 0)  -->
<svg version="1.2" baseProfile="tiny" id="Layer_1" xmlns="http://www.w3.org/2000/svg" xmlns:xlink="http://www.w3.org/1999/xlink"
	 x="0px" y="0px" viewBox="0 0 93 95" overflow="visible" xml:space="preserve">
<g transform="translate(-969 -2702)">
	<ellipse fill="#6096BA" cx="1015.5" cy="2749.5" rx="46.5" ry="47.5"/>
	<path fill="#FFFFFF" d="M1039.5,2740.3c0,0.5,0,1,0,1.4c0,14.7-11.2,31.7-31.7,31.7c-6.1,0-12-1.7-17.1-5c0.9,0.1,1.8,0.1,2.7,0.1
		c5,0,9.9-1.7,13.8-4.8c-4.8-0.1-9-3.2-10.4-7.7c0.7,0.1,1.4,0.2,2.1,0.2c1,0,2-0.1,2.9-0.4c-5.2-1.1-8.9-5.6-8.9-10.9v-0.1
		c1.5,0.9,3.3,1.3,5,1.4c-4.9-3.3-6.4-9.8-3.4-14.9c5.7,7,14,11.2,23,11.7c-0.2-0.8-0.3-1.7-0.3-2.6c0-6.2,5-11.2,11.2-11.1
		c3.1,0,6,1.3,8.1,3.5c2.5-0.5,4.9-1.4,7.1-2.7c-0.8,2.6-2.6,4.8-4.9,6.1c2.2-0.3,4.4-0.8,6.4-1.7
		C1043.6,2736.8,1041.7,2738.7,1039.5,2740.3z"/>
</g>
</svg>
