<?xml version="1.0" encoding="utf-8"?>
<!-- Generator: Adobe Illustrator 25.0.0, SVG Export Plug-In . SVG Version: 6.00 Build 0)  -->
<svg version="1.1" id="Layer_1" xmlns="http://www.w3.org/2000/svg" xmlns:xlink="http://www.w3.org/1999/xlink" x="0px" y="0px"
	 viewBox="0 0 490.4 490.4" style="enable-background:new 0 0 490.4 490.4;" xml:space="preserve">
<path d="M490.4,245.2c0,135.2-110,245.2-245.2,245.2S0,380.4,0,245.2S110,0,245.2,0S490.4,110,490.4,245.2z M24.5,245.2
	c0,121.7,99,220.7,220.7,220.7s220.7-99,220.7-220.7s-99-220.7-220.7-220.7S24.5,123.5,24.5,245.2z"/>
<path d="M253.8,129.9l68.9,68.9c4.8,4.8,4.8,12.5,0,17.3c-4.8,4.8-12.5,4.8-17.3,0l-48-48v183.5c0,6.8-5.5,12.3-12.3,12.3
	s-12.3-5.5-12.3-12.3V168.3l-48,48c-4.8,4.8-12.5,4.8-17.3,0s-4.8-12.5,0-17.3l68.9-68.9c2.4-2.4,5.5-3.6,8.7-3.6
	S251.5,127.6,253.8,129.9L253.8,129.9z"/>
</svg>
